<?xml version="1.0" standalone="no"?>
<!DOCTYPE svg PUBLIC "-//W3C//DTD SVG 20010904//EN"
 "http://www.w3.org/TR/2001/REC-SVG-20010904/DTD/svg10.dtd">
<svg version="1.0" xmlns="http://www.w3.org/2000/svg"
 width="300.000000pt" height="300.000000pt" viewBox="0 0 300.000000 300.000000"
 preserveAspectRatio="xMidYMid meet">
<metadata>
Created by potrace 1.14, written by Peter Selinger 2001-2017
</metadata>
<g transform="translate(0.000000,300.000000) scale(0.100000,-0.100000)"
fill="#000000" stroke="none">
<path d="M2214 2686 c-66 -28 -107 -63 -144 -125 -16 -28 -28 -51 -25 -51 2 0
-4 -20 -15 -45 -11 -25 -17 -45 -14 -45 4 0 -7 -15 -23 -34 -17 -18 -44 -58
-62 -89 -18 -31 -36 -59 -41 -62 -12 -7 16 80 36 110 26 40 28 131 3 172 -11
18 -26 33 -32 33 -7 0 -20 20 -30 45 -11 25 -22 45 -25 45 -4 0 -7 -35 -6 -78
0 -43 -6 -92 -14 -111 -12 -30 -11 -40 3 -76 8 -24 25 -51 35 -60 11 -10 20
-25 20 -34 0 -27 -28 -98 -60 -155 -44 -78 -92 -82 -70 -6 13 44 -17 119 -56
139 -17 9 -45 28 -64 43 -28 22 -30 26 -12 22 12 -4 25 -10 28 -15 3 -5 20 -9
37 -9 l32 0 -33 22 c-19 11 -47 21 -63 20 -16 0 -27 3 -25 7 9 14 -55 11 -79
-5 -28 -18 -29 -17 -14 23 14 37 13 154 -2 187 -7 14 -18 26 -25 26 -7 0 -18
9 -24 20 -22 42 -147 80 -165 50 -3 -5 -19 -7 -34 -4 -66 13 -160 -50 -179
-120 -6 -21 -8 -57 -5 -82 l5 -44 -27 10 c-14 5 -41 10 -58 9 -31 -1 -31 -1
-7 -9 27 -9 13 -14 -32 -11 -16 0 -28 -4 -28 -10 0 -5 4 -8 9 -5 5 4 20 2 33
-3 12 -6 17 -10 11 -10 -19 -1 -16 -21 5 -38 15 -13 15 -13 -6 -3 -13 6 -25
17 -28 25 -3 8 -16 12 -33 10 -15 -2 -34 1 -42 6 -12 8 -12 10 1 19 11 7 16 5
18 -5 2 -9 7 -13 12 -10 5 3 6 13 3 22 -4 9 -2 14 3 10 6 -3 16 -2 24 3 10 7
1 9 -28 7 -46 -2 -61 -21 -43 -56 20 -36 11 -40 -21 -8 -20 19 -29 35 -23 39
11 8 -34 12 -97 9 -43 -2 -43 -2 -24 44 8 18 12 35 10 38 -3 2 0 16 5 31 7 15
7 26 1 26 -5 0 -15 -18 -21 -41 l-13 -41 -17 34 c-21 40 -45 63 -95 88 -46 24
-70 25 -140 4 -66 -19 -77 -37 -71 -115 3 -43 1 -59 -8 -59 -7 0 -15 7 -19 15
-3 8 -10 15 -17 15 -11 0 7 -24 80 -110 21 -25 28 -40 20 -41 -47 -3 -63 -9
-90 -34 -28 -27 -67 -99 -84 -153 -7 -23 -7 -24 13 -5 11 10 34 31 51 47 17
15 30 34 29 41 -3 14 0 15 25 15 8 0 7 -4 -3 -10 -10 -7 -11 -10 -2 -10 7 0
15 7 18 15 4 8 10 15 16 15 5 0 7 -4 4 -9 -14 -21 122 36 157 66 64 56 111 42
225 -70 18 -17 40 -44 48 -59 8 -16 18 -28 23 -28 4 0 13 -11 20 -24 11 -20
10 -28 -4 -50 -22 -34 -35 -33 -71 5 -35 37 -83 64 -94 52 -5 -4 -10 -19 -12
-33 -2 -21 -7 -24 -28 -20 -84 15 -223 -7 -283 -46 -39 -25 27 -42 185 -47 20
-1 35 -4 33 -7 -2 -3 24 -17 58 -30 68 -26 142 -57 170 -72 9 -5 17 -7 17 -4
0 9 -94 56 -146 73 -54 17 -70 32 -36 34 33 2 47 -2 131 -42 78 -36 131 -79
131 -104 0 -14 33 -41 58 -49 26 -9 49 -63 34 -78 -8 -8 -22 -7 -51 6 -46 21
-99 27 -123 15 -13 -7 -28 1 -64 32 -103 89 -213 143 -359 176 -43 9 -270 14
-257 5 7 -5 41 -10 74 -11 62 -2 121 -20 69 -21 -13 0 -22 -2 -19 -5 9 -9 49
-15 153 -21 148 -9 238 -47 343 -144 34 -31 28 -41 -11 -16 -12 8 -65 25 -117
36 -77 18 -114 21 -194 16 -55 -3 -104 -10 -109 -15 -6 -6 -4 -9 4 -8 45 2 73
-4 60 -12 -23 -15 25 -24 77 -15 26 5 54 7 62 6 8 -1 53 -5 100 -8 82 -6 147
-23 89 -24 -30 0 -50 -30 -21 -30 14 0 15 -2 2 -9 -8 -6 -18 -7 -24 -4 -5 3
-6 1 -2 -6 4 -6 2 -19 -5 -27 -6 -8 -9 -17 -5 -21 3 -3 6 -1 6 5 0 6 7 9 16 5
16 -6 16 -7 0 -18 -13 -10 -14 -18 -6 -39 5 -14 8 -26 7 -27 -5 -1 -34 -7 -67
-13 -100 -17 -267 -94 -240 -111 6 -4 34 -1 61 5 51 12 124 9 209 -10 25 -6
59 -13 75 -16 34 -6 58 -24 33 -24 -20 0 -38 -22 -44 -54 -2 -15 -12 -47 -22
-72 -14 -37 -24 -49 -52 -59 -19 -7 -61 -22 -92 -33 -88 -32 -151 -78 -186
-136 -36 -61 -126 -148 -205 -199 -34 -22 -38 -52 -4 -41 12 4 29 8 37 9 9 0
20 4 25 7 6 3 37 9 70 13 33 4 90 20 127 36 82 36 88 36 48 3 -39 -34 -54 -63
-80 -160 -14 -53 -30 -89 -50 -109 -15 -16 -42 -58 -59 -92 -17 -34 -35 -64
-41 -68 -16 -10 -12 -22 10 -28 11 -3 20 -1 20 4 0 5 6 9 14 9 8 0 34 15 58
33 24 19 63 42 86 52 30 13 42 25 42 39 0 15 3 17 9 8 6 -10 23 -1 69 37 50
42 61 47 65 32 5 -20 -21 -91 -34 -91 -5 0 -9 -4 -9 -10 0 -5 7 -10 16 -10 26
0 103 87 134 152 26 54 72 124 90 138 12 8 34 55 32 63 -1 5 2 6 8 2 10 -6 17
5 23 40 2 11 9 32 15 46 6 14 12 43 14 63 2 20 7 36 11 36 4 0 11 0 16 0 5 0
11 -10 14 -22 9 -41 48 -142 82 -213 19 -38 43 -97 55 -130 11 -33 35 -85 54
-115 19 -30 47 -84 63 -119 l29 -64 15 34 c27 64 16 238 -21 349 -5 14 -11 45
-15 70 -3 25 -12 72 -19 105 -13 58 -13 61 8 79 11 10 20 20 18 23 -2 3 0 8 4
11 4 4 4 1 0 -5 -11 -20 5 -15 31 9 27 26 28 19 6 -64 -29 -114 -24 -144 36
-211 38 -42 112 -78 135 -65 10 5 27 7 39 4 11 -3 33 2 47 11 26 15 28 14 61
-18 19 -19 47 -51 63 -71 16 -21 32 -36 36 -33 10 6 1 72 -15 111 -17 40 -9
52 39 56 28 2 44 10 58 29 18 24 18 31 7 87 -7 34 -17 62 -23 62 -5 0 -29 -9
-53 -21 -24 -11 -55 -23 -70 -25 -16 -3 -35 -6 -43 -7 -9 -2 -21 -6 -28 -11
-6 -4 -12 -2 -12 3 0 6 -3 10 -7 9 -7 -1 -33 4 -85 18 -9 3 -20 14 -23 25 -4
10 -12 19 -19 19 -6 0 -12 11 -12 25 0 18 5 25 19 25 10 0 15 -4 12 -10 -3 -5
-2 -10 4 -10 5 0 13 5 16 10 3 6 11 10 16 10 6 0 3 -7 -5 -16 -20 -19 -20 -25
-1 -18 11 5 14 1 9 -12 -5 -16 -2 -15 14 4 25 28 35 28 27 1 -7 -20 -6 -20 17
-5 14 9 29 12 37 7 21 -13 73 10 108 48 17 19 30 38 27 42 -2 4 3 10 12 13 14
5 14 7 0 21 -13 13 -13 20 -3 36 11 18 13 17 44 -17 34 -37 42 -50 21 -38 -9
6 -9 3 0 -9 8 -9 10 -21 6 -29 -9 -14 -11 -19 -13 -44 0 -8 -5 -13 -9 -10 -5
3 -9 -1 -9 -8 0 -8 6 -12 14 -9 7 3 13 11 13 17 0 7 6 21 14 31 13 18 14 18
59 -1 27 -11 52 -30 62 -47 13 -22 19 -26 26 -16 5 8 9 10 9 4 0 -5 5 -2 11 8
8 13 6 21 -6 33 -8 9 -12 21 -8 27 4 6 1 8 -8 5 -9 -4 -14 2 -15 19 -1 13 1
22 4 19 3 -3 19 3 37 14 18 11 35 17 38 13 4 -3 7 -1 7 6 0 8 5 9 19 2 14 -8
20 -7 24 3 4 10 0 12 -14 9 -12 -3 -19 0 -19 8 0 16 19 49 20 34 0 -5 7 -1 15
9 11 15 15 16 15 5 0 -8 -6 -21 -12 -29 -7 -8 -2 -6 12 5 14 11 26 21 28 21 2
1 5 9 6 18 3 20 46 66 61 66 16 0 9 -91 -7 -101 -7 -5 -9 -11 -5 -15 9 -9 -13
-35 -24 -28 -5 3 -9 -2 -9 -10 0 -9 -9 -16 -20 -16 -11 0 -27 -11 -36 -25 -9
-14 -22 -25 -28 -25 -7 0 -23 -11 -35 -24 l-22 -24 45 -21 c48 -24 142 -121
173 -180 36 -66 60 -109 81 -141 27 -41 122 -140 134 -140 21 0 -21 189 -47
210 -8 7 -15 18 -15 24 0 15 -63 76 -113 110 -24 15 -48 45 -63 75 -14 27 -43
66 -65 86 -23 20 -39 38 -37 39 22 16 79 25 153 24 50 -1 99 3 110 9 11 6 47
16 80 22 33 7 67 15 75 18 8 3 34 6 58 6 33 1 42 4 42 19 0 12 5 15 16 11 12
-4 13 -8 3 -14 -12 -7 15 -12 135 -24 32 -3 67 -10 78 -16 10 -6 27 -9 36 -7
11 2 -3 18 -45 49 -58 44 -197 104 -266 116 -16 2 -56 15 -90 27 -43 16 -70
21 -89 16 -14 -4 -44 -3 -66 3 l-39 10 29 25 c16 13 27 27 24 29 -3 3 1 12 9
19 7 8 12 25 9 39 -3 18 0 25 11 25 9 0 14 -4 11 -9 -6 -9 62 2 99 15 29 10
75 44 75 54 0 10 -33 6 -53 -6 -6 -5 16 18 51 50 50 47 60 61 51 72 -13 16
-46 19 -51 5 -1 -6 -18 -13 -37 -16 -19 -3 -38 -8 -43 -11 -5 -3 -19 -7 -33
-10 -19 -3 -23 -1 -19 11 3 8 10 12 15 9 14 -8 58 29 59 50 0 14 3 16 13 8 9
-8 17 -8 27 0 12 8 12 9 -3 4 -15 -5 -16 -3 -7 14 6 11 13 20 16 20 3 0 3 -3
1 -7 -3 -5 1 -14 9 -21 8 -7 14 -8 14 -3 0 6 9 7 22 2 17 -6 37 0 80 23 32 17
58 34 58 37 0 13 -93 32 -153 32 -99 1 -114 -5 -195 -74 -10 -8 -11 -5 -6 16
6 25 5 26 -15 16 -11 -7 -21 -9 -21 -5 0 3 -16 -3 -36 -15 -41 -25 -64 -27
-64 -6 0 8 5 15 10 15 6 0 10 7 10 15 0 19 -5 19 -35 -1 -21 -14 -26 -14 -60
3 l-36 19 48 45 c51 48 161 115 203 123 14 2 63 13 110 24 47 11 111 23 143
26 49 5 60 3 78 -15 17 -17 168 -89 186 -89 7 0 -3 61 -16 93 -12 30 -98 78
-129 72 -9 -2 -23 -4 -31 -4 -8 -1 -11 -8 -7 -18 5 -16 5 -16 -6 -2 -7 9 -34
19 -60 22 -26 4 -75 16 -109 27 -47 16 -68 19 -88 11 -14 -5 -50 -19 -78 -30
-70 -28 -67 -18 5 16 57 27 84 48 200 150 57 51 102 121 102 159 0 7 14 29 31
49 18 20 29 38 26 41 -3 4 -39 -9 -79 -28 -40 -19 -100 -45 -133 -57 -33 -13
-78 -32 -100 -43 -22 -11 -56 -29 -75 -38 -66 -34 -187 -166 -217 -238 -8 -20
-19 -39 -24 -42 -4 -3 -14 -20 -21 -37 l-13 -31 -28 29 c-18 19 -22 29 -12 29
29 0 92 76 109 131 10 30 19 59 22 66 9 22 -64 -9 -105 -43 -21 -18 -50 -36
-64 -40 -15 -3 -29 -10 -32 -14 -3 -5 -18 -2 -33 6 -15 7 -34 14 -43 14 -26 0
-29 11 -14 41 29 56 151 151 165 129 9 -14 85 -17 135 -6 17 4 47 10 68 13 21
3 40 9 42 14 9 13 -124 52 -160 46 -29 -5 -100 -41 -165 -85 -24 -16 -25 -16
-9 3 9 11 27 41 42 66 22 38 35 49 82 67 31 12 76 22 99 22 36 0 48 6 88 45
49 48 46 52 -26 36 -21 -5 -53 -23 -70 -38 -30 -28 -115 -68 -124 -58 -13 13
22 37 123 87 74 37 125 104 120 158 -1 14 7 42 18 62 11 21 19 39 16 41 -2 2
-27 -6 -55 -17z m-1508 -387 c16 -7 31 -13 34 -14 91 -27 131 -57 170 -130 12
-23 12 -28 -7 -46 l-21 -21 -41 55 c-50 69 -77 96 -135 138 -25 18 -46 34 -46
36 0 2 4 2 9 -1 4 -3 21 -11 37 -17z m362 -15 l23 -12 -24 -6 c-13 -3 -34 -15
-47 -26 -24 -21 -38 -20 -24 2 5 7 9 24 10 38 1 14 2 26 3 27 1 3 31 -8 59
-23z m541 -46 c0 -24 3 -53 5 -65 4 -19 0 -23 -18 -23 -12 0 -26 -4 -31 -9
-12 -12 -127 -71 -137 -71 -5 0 -8 8 -8 18 0 9 -11 36 -25 60 -13 23 -20 42
-14 42 5 0 9 -4 9 -10 0 -5 7 -10 14 -10 8 0 28 -12 43 -27 15 -14 22 -23 14
-18 -9 5 -12 4 -7 -3 8 -13 36 -5 36 10 0 5 4 7 9 4 12 -8 8 27 -4 36 -6 5 -5
12 2 19 7 7 9 17 4 23 -4 6 -11 23 -15 37 -6 26 -5 27 39 24 33 -1 45 2 45 12
0 10 5 11 19 4 13 -8 19 -22 20 -53z m-667 -80 c-6 -6 -14 3 -21 23 -17 49
-13 58 10 20 13 -21 17 -37 11 -43z m358 1 c27 -33 50 -68 50 -77 0 -16 -89
-67 -91 -53 0 3 -2 24 -3 45 -2 29 -11 47 -34 67 -28 25 -30 29 -14 38 9 6 13
11 8 11 -11 0 13 30 25 30 4 0 31 -27 59 -61z m-980 18 c0 -2 -14 -16 -32 -33
-30 -28 -30 -17 0 19 13 15 32 23 32 14z m668 -144 c-2 -26 -8 -39 -20 -41
-20 -4 -48 40 -29 46 7 2 17 10 24 18 20 23 28 16 25 -23z m-73 -44 c-2 -11 0
-17 5 -14 17 10 21 -15 6 -37 -14 -20 -21 -18 -17 4 0 4 -7 4 -16 1 -11 -4
-14 -3 -9 5 4 7 1 12 -9 12 -9 0 -13 5 -10 10 3 6 -2 10 -12 11 -15 0 -14 2 3
9 12 5 25 13 28 19 11 17 35 1 31 -20z m1205 -149 c0 -5 -4 -10 -10 -10 -5 0
-10 -6 -10 -14 0 -8 -4 -18 -10 -21 -6 -4 -7 1 -3 11 4 12 3 15 -6 10 -7 -5
-11 -16 -8 -26 3 -13 0 -17 -9 -13 -16 6 -11 18 20 50 23 24 36 29 36 13z
m-60 -80 c0 -5 -5 -10 -11 -10 -5 0 -7 5 -4 10 3 6 8 10 11 10 2 0 4 -4 4 -10z
m-10 -40 c-6 -11 -13 -20 -16 -20 -2 0 0 9 6 20 6 11 13 20 16 20 2 0 0 -9 -6
-20z m506 -75 c-8 -8 -17 -15 -20 -15 -3 0 -3 7 0 15 4 8 13 15 21 15 12 0 12
-2 -1 -15z m-1836 -45 c0 -5 -5 -10 -11 -10 -5 0 -7 5 -4 10 3 6 8 10 11 10 2
0 4 -4 4 -10z m25 -10 c3 -5 1 -10 -4 -10 -6 0 -11 5 -11 10 0 6 2 10 4 10 3
0 8 -4 11 -10z m2012 -496 c18 -8 34 -18 37 -23 9 -13 -37 -6 -71 12 -18 9
-41 17 -53 17 -12 0 -18 5 -15 10 8 12 59 4 102 -16z m-203 -2 c3 -5 -1 -9 -9
-9 -8 0 -12 4 -9 9 3 4 7 8 9 8 2 0 6 -4 9 -8z m-664 -132 c0 -5 -5 -10 -11
-10 -5 0 -7 5 -4 10 3 6 8 10 11 10 2 0 4 -4 4 -10z"/>
<path d="M1255 2169 c-4 -6 -14 -8 -22 -5 -8 3 -11 2 -8 -3 8 -14 42 -9 42 6
0 16 -4 16 -12 2z"/>
<path d="M1270 2130 c-8 -5 -10 -10 -5 -10 6 0 17 5 25 10 8 5 11 10 5 10 -5
0 -17 -5 -25 -10z"/>
<path d="M1296 2107 c3 -10 9 -15 12 -12 3 3 0 11 -7 18 -10 9 -11 8 -5 -6z"/>
<path d="M1276 2097 c3 -10 9 -15 12 -12 3 3 0 11 -7 18 -10 9 -11 8 -5 -6z"/>
<path d="M2080 1091 c0 -17 18 -21 24 -6 3 9 0 15 -9 15 -8 0 -15 -4 -15 -9z"/>
<path d="M2060 1059 c0 -5 5 -7 10 -4 6 3 10 8 10 11 0 2 -4 4 -10 4 -5 0 -10
-5 -10 -11z"/>
<path d="M1951 991 c-11 -7 -9 -12 10 -22 21 -11 23 -11 11 3 -10 13 -10 17 0
21 7 3 9 6 3 6 -5 0 -16 -3 -24 -8z"/>
</g>
</svg>
